<svg xmlns="http://www.w3.org/2000/svg" viewBox="0 0 1920 1080"><g id="Layer_4" data-name="Layer 4"><rect x="-15.8909" y="-4.0247" width="1958.7299" height="1107.4668" fill="#fff"/></g><g id="Layer_1" data-name="Layer 1"><g id="Clock"><ellipse id="Clock-Frame" cx="1478.7206" cy="247.7932" rx="108.0337" ry="87.8293" fill="#f2f2f2"/><ellipse id="Time" cx="1478.7206" cy="178.1926" rx="6.1151" ry="4.9715" fill-opacity="0.1"/><ellipse id="Time-2" data-name="Time" cx="1393.109" cy="247.7932" rx="6.1151" ry="4.9715" fill-opacity="0.1"/><ellipse id="Time-3" data-name="Time" cx="1564.3322" cy="247.7932" rx="6.1151" ry="4.9715" fill-opacity="0.1"/><ellipse id="Time-4" data-name="Time" cx="1478.7206" cy="317.3938" rx="6.1151" ry="4.9715" fill-opacity="0.1"/><polygon id="Hand" points="1478.721 188.136 1482.797 246.136 1474.644 246.136 1478.721 188.136" fill="#afb9c5" fill-rule="evenodd"/><polygon id="Hand-2" data-name="Hand" points="1514.797 277.122 1477.322 251.343 1483.087 246.656 1514.797 277.122" fill="#afb9c5" fill-rule="evenodd"/><ellipse id="Time-5" data-name="Time" cx="1478.7206" cy="247.7932" rx="8.1535" ry="6.6286" fill="#c5cfd6"/></g><g id="Background-Shape-2" opacity="0.3459"><path id="Background-Shape" d="M1356.2649,727.2119C1337.1657,594.523,312.4119,338.4194,122.17,464.1s-7.3479,361.5495,391.3289,421.95S1375.3641,859.9009,1356.2649,727.2119Z" fill="#f2f2f2" fill-rule="evenodd"/><path id="Background-Shape-2-2" data-name="Background-Shape" d="M722.8847,813.4273c17.1082-112.7244,935.04-330.2945,1105.45-223.5241s127.2764,331.3494-229.8415,382.6617S705.7764,926.1518,722.8847,813.4273Z" fill="#dde3e9" fill-rule="evenodd"/></g><g id="Hanging-Lamp"><g id="Light"><ellipse id="Hanging-Lamp-Light" cx="172.6209" cy="332.477" rx="117.729" ry="38.7482" fill="#f2f2f2"/><path id="Hanging-Lamp-2" data-name="Hanging-Lamp" d="M309.7406,359.17c0-47.5557-61.3906-86.1072-137.12-86.1072s-137.12,38.5515-137.12,86.1072" fill="#dde3e9" fill-rule="evenodd"/></g><rect id="Wire" x="165.6956" y="10.1374" width="13.8505" height="275.543" fill="#dde3e9"/></g><g id="Hanging-Lamp-3" data-name="Hanging-Lamp" opacity="0.7"><g id="Light-2" data-name="Light"><ellipse id="Hanging-Lamp-Light-2" data-name="Hanging-Lamp-Light" cx="387.3032" cy="252.6877" rx="87.9995" ry="31.2705" fill="#f2f2f2"/><path id="Hanging-Lamp-4" data-name="Hanging-Lamp" d="M489.7967,274.23c0-38.3782-45.8879-69.49-102.4935-69.49S284.81,235.8514,284.81,274.23" fill="#dde3e9" fill-rule="evenodd"/></g><rect id="Wire-2" data-name="Wire" x="381.763" y="10.1374" width="13.8505" height="234.2115" fill="#dde3e9"/></g><g id="Lamp"><path id="Body" d="M1583.9842,413.5248l51.4341-31.9973c8.6526-5.3814,22.684-5.3832,31.34-.004l.0065.004L1803.6972,466.7c8.308,5.1671,12.975,12.1739,12.975,19.48v564.1321" fill="none" stroke="#cbcbcb" stroke-width="10.5506"/><path id="Lamp-Base" d="M1741.88,1048.59h146.8151c4.59,0,8.31,2.3131,8.31,5.1665v1.7221c0,2.8534-3.7207,5.1664-8.31,5.1664H1741.88c-4.59,0-8.31-2.313-8.31-5.1664v-1.7221C1733.5694,1050.9031,1737.29,1048.59,1741.88,1048.59Z" fill="#afb9c5" fill-rule="evenodd"/><g id="Lamp-Top"><path id="Lamp-2" data-name="Lamp" d="M1614.92,394.7515h0c35.699,22.1938,35.699,58.177,0,80.3708l-54.8451,34.0967-129.2777-80.3708,54.8451-34.0967C1521.3413,372.5577,1579.2209,372.5577,1614.92,394.7515Z" fill="#c5cfd6" fill-rule="evenodd"/><ellipse id="Lamp-3" data-name="Lamp" cx="1497.6242" cy="468.1083" rx="13.3919" ry="76.4098" transform="translate(325.6669 1511.4297) rotate(-59.0342)" fill="#f2f2f2"/></g></g><g id="Big-Leaf-Plant"><g id="Big-Ass-Leaf"><path id="leaf" d="M141.4793,651.0729c7.9352-.6027,16.4044-.39,23.7839,1.5573,15.6916,4.1412,20.152,15.666,19.9368,25.0334-.232,10.0823-3.6759,21.0947,8.654,29.2183,5.6678,3.7348,12.7181,6.593,18.2835,10.3963a53.8328,53.8328,0,0,1,14.0676,13.7086c6.3436,9.1728,9.4571,19.96,3.6563,29.5821-5.1076,8.4718-17.9576,16.1184-15.181,25.7517,2.8962,10.0493,19.1934,17.7321,29.3824,25.2173,11.5312,8.4708,22.1482,19.2974,23.8924,30.406,1.6724,10.6461-5.7816,21.413-17.2211,29.4606-22.8561,16.08-57.2124,23.9634-91.8541,23.9145-14.7079-.0212-31.36-.4341-44.0528-5.3478a21.265,21.265,0,0,1-8.3244-5.5915c-2.0909-2.1241-4.8529-3.5057-8.05-5.0087-7.0239-3.3012-12.0963-7.75-15.3335-12.7309-12.57-19.3445-2.5234-43.276,15.0723-60.4541,4.1695-4.07,7.583-7.9863,5.5575-12.8373-2.1137-5.0638-7.3087-9.6311-11.9036-13.984-4.5405-4.3019-9.7241-8.4059-13.2729-13.0572A20.0737,20.0737,0,0,1,74.466,751c1.2342-10.017,8.19-19.2609,18.0372-27.3168,9.485-7.76,20.6219-15.1844,20.6469-25.3519.0274-10.7761-11.5607-20.3621-6.624-31.3181a23.5076,23.5076,0,0,1,12.7664-11.9111C125.638,652.4933,134.0164,651.64,141.4793,651.0729Z" fill="#dde3e9" fill-rule="evenodd"/><path id="middle-thing" d="M136.2943,668.3c.1488-1.4473,2.91-2.3153,5.0841-1.9376,2.8614.4973,2.8063,2.16,2.7308,3.64a31.67,31.67,0,0,0,2.5882,13.392c3.658,9.1825,10.4184,17.6426,15.7744,26.4632,5.3513,8.8131,7.8633,17.9124,4.724,27.238-2.9594,8.7927-7.6088,17.3575-10.6375,26.1613-2.6695,7.7594-5.51,15.9422-1.4447,23.6818,3.9119,7.45,12.5606,13.5172,18.7883,20.25,12.8922,13.9369,18.6118,29.3983,19.3768,45.3094.3545,7.3885.0352,14.8449-2.7218,22.0914-1.5869,4.1726-3.7194,9.8116-9.4708,12.6924-2.6522,1.3285-7.1881,1.7878-9.42-.1795-2.0957-1.8452-.2572-4.7017.4081-6.6684a63.9069,63.9069,0,0,0,2.7711-25.8581c-.6676-8.3733-2.2589-16.7327-6.4979-24.7295-3.9343-7.4212-9.9112-14.0868-16.9457-20.5788-7.1681-6.6158-14.62-13.2456-17.5817-21.0846-3.0093-7.9617-.5646-16.0629,2.7044-23.8725a210.9573,210.9573,0,0,1,12.6665-24.32c4.5621-7.831,6.1791-15.24,3.6606-23.4366C147.8761,700.3614,134.5592,685.1628,136.2943,668.3Z" fill="#c5cfd6" fill-rule="evenodd"/></g><g id="Big-Ass-Leaf-2" data-name="Big-Ass-Leaf"><path id="leaf-2" data-name="leaf" d="M350.9937,670.7212c9.82,1.8536,19.5723,4.8443,26.5721,9.5338,14.884,9.9724,10.3172,25.0445,2.1007,36.053-8.8441,11.8486-22.2463,23.7584-14.6912,37.3532,3.4724,6.25,9.3117,11.91,12.6058,18.2081a41.82,41.82,0,0,1,4.8449,20.762c-.3583,12.8995-5.8776,26.6635-20.8622,36.167-13.1934,8.3671-34.7663,13.2542-39.7,25.5448-5.147,12.8213,7.4361,27.178,13.023,39.3254,6.3229,13.7473,9.5709,29.9848,2.1721,43.6862-7.09,13.1312-24.9865,23.4538-45.2459,29.2712-40.48,11.625-87.4783,9.8363-128.0681-1.4252-17.233-4.7819-36.4134-10.6559-47.1229-20.572a15.2477,15.2477,0,0,1-5.01-9.3049c-.6465-3.1882-2.7115-5.7154-5.1834-8.5268a27.0852,27.0852,0,0,1-7.1608-20.0151c1.7028-26.9428,33.8336-51.9955,69.0764-66.62,8.35-3.4647,15.684-6.9923,17.4326-13.3843,1.8262-6.6723-.3839-13.7539-2.0725-20.3877-1.6681-6.5561-4.2587-13.086-4.4666-19.7346-.2167-6.9645,2.8938-13.3373,8.1979-19.4315,9.9642-11.4473,25.9814-20.13,44.3807-26.472,17.7222-6.1092,37.0972-11.288,45.7709-23.3042,9.194-12.7353,3.7523-27.82,18.8573-39.18a51.5627,51.5627,0,0,1,25.1007-9.9575C331.2058,667.2776,341.7585,668.9779,350.9937,670.7212Z" fill="#dde3e9" fill-rule="evenodd"/><path id="middle-thing-2" data-name="middle-thing" d="M330.9353,691.7806c1.3932-1.6654,5.3534-1.7936,7.5771-.638,2.9269,1.5214,1.4623,3.4718.1265,5.2009a48.5022,48.5022,0,0,0-8.2553,16.7026c-3.4583,12.0662-2.68,24.2879-3.8481,36.4788a49.03,49.03,0,0,1-17.422,33.7955c-10.8677,9.4483-23.5193,18.0761-34.4773,27.515-9.6583,8.3191-19.873,17.0838-21.6394,27.5741-1.7018,10.0972,3.3,20.1,4.91,30.1026,3.3342,20.7055-3.0029,40.8791-15.5122,59.9709-5.81,8.8652-12.4645,17.5914-21.7929,25.2746-5.3706,4.4242-12.6146,10.4073-21.7666,11.9447-4.22.709-9.9113-.225-10.864-3.2821-.8961-2.868,3.66-5.6518,6.0947-7.764A127.7033,127.7033,0,0,0,219.09,924.937c6.2732-10.1335,11.4545-20.5514,13.2346-31.4028,1.6513-10.07.2778-19.9117-2.4788-29.8918-2.8084-10.17-5.9368-20.45-2.7963-30.6982,3.1882-10.409,12.8715-19.2061,23.2729-27.3893,11.0011-8.6558,23.0549-16.6818,35.299-24.6736,11.9315-7.7872,20.0642-16.0349,24.0239-26.5616C317.4689,733.5227,314.7009,711.1846,330.9353,691.7806Z" fill="#c5cfd6" fill-rule="evenodd"/></g><g id="Big-Ass-Leaf-3" data-name="Big-Ass-Leaf"><path id="leaf-3" data-name="leaf" d="M47.4291,747.2149c16.3278,0,30.6826,5.3806,40.5739,13.0158,11.5788,8.9382,13.9173,19.8534,18.6191,30.5061a28.3485,28.3485,0,0,0,13.4151,14.1659c6.4138,3.2757,14.5561,3.9312,22.2331,5.5316,15.3428,3.1983,27.7319,10.9028,32.6247,20.3037,5.9691,11.4672-.3533,23.0317.7354,34.653.9993,10.6726,17.9258,17.3312,31.5442,22.4473,13.4284,5.0451,25.5258,9.7677,29.57,19.5958,4.2889,10.4238,5.7277,22.0588-.2126,32.356-9.89,17.1453-38.8352,24.6951-66.8033,25.8658-25.382,1.0621-57.297-.6057-76.3587-12.06-11.4062-6.8544-15.5369-16.44-15.0244-25.978.3183-5.9307,2.2081-11.8065,4.6514-17.5377,1.7315-4.0621,4.0711-8.1067,4.7377-12.3042,1.7716-11.1672-14.83-13.3121-28.9623-16.3781-17.9576-3.8969-30.5295-11.2571-39.2716-21.5112-8.1413-9.5475-11.5572-20.265-6.6768-30.7768,2.4927-5.3675,7.0136-10.2373,13.145-14.3792,2.6991-1.8231,6.5032-3.3436,8.9393-5.259,2.2738-1.7887,1.7788-4.1064.9952-6.2014-3.6234-9.6772-14.9125-17.69-18.95-27.35-3.6449-8.7193-1.49-19.5709,11.3323-25.196C33.8261,748.2939,40.6579,747.2417,47.4291,747.2149Z" fill="#c5cfd6" fill-rule="evenodd"/><path id="middle-thing-3" data-name="middle-thing" d="M69.6777,772.4294c17.3057,11.46,22.01,27.01,23.39,42.08.7733,8.451-.0316,17.3647,3.9622,25.5619,3.4171,7.0158,11.4281,12.3789,19.6856,17.4476,16.622,10.2036,35.1594,20.5767,40.0212,35.3438,2.8527,8.6661.9272,17.6173,4.869,26.188,3.5842,7.7905,9.8947,15.4444,17.5705,22.023,6.18,5.2976,14.2319,9.3534,20.9877,14.2918,2.0611,1.5075,5.0136,3.7265,4.1629,5.8546-.9954,2.4922-6.1017,3.2812-9.7246,2.8895-8.4471-.9125-15.5574-5.9269-21.08-9.5724a98.9267,98.9267,0,0,1-20.517-17.4956c-6.1924-7.1425-11.1785-14.7215-13.3088-22.7347-2.2109-8.3131-1.1105-16.9768-6.1588-24.955-8.4949-13.4242-29.0995-21.3463-43.9967-31.8093C70.98,844.5053,73.7479,828.2788,75.649,812.2413c1.0443-8.8133,2.0825-18.7661-5.0808-26.813-2.7345-3.0716-8.8311-5.9356-10.0068-9.427C59.4845,772.8024,65.362,769.57,69.6777,772.4294Z" fill="#afb9c5" fill-rule="evenodd"/></g><path id="Base" d="M88.133,960.7607c.001,65.5422,17.2057,99.8843,108.0339,99.8843S304.2,1026.3029,304.2,960.7607Z" fill="#89c5cc" fill-rule="evenodd"/></g><g id="Table"><g id="Lamp-4" data-name="Lamp"><path id="Lamp-Base-2" data-name="Lamp-Base" d="M467.636,866.0428h94.1832c3.06,0,5.54,1.5421,5.54,3.4443v8.6107c0,1.9022-2.48,3.4443-5.54,3.4443H467.636c-3.06,0-5.54-1.5421-5.54-3.4443v-8.6107C462.0958,867.5849,464.5762,866.0428,467.636,866.0428Z" fill="#afb9c5" fill-rule="evenodd"/><path id="Lamp-Body" d="M489.7967,816.1006a192.0583,192.0583,0,0,0,19.9914-75.7743h12.6491a192.0582,192.0582,0,0,0,19.9913,75.7743h18.0057c23.7131,0,42.9364,11.951,42.9364,26.6933s-19.2233,26.6932-42.9364,26.6932H469.021c-23.7131,0-42.9364-11.951-42.9364-26.6932s19.2233-26.6933,42.9364-26.6933Z" fill="#dde3e9" fill-rule="evenodd"/><path id="Shade" d="M416.7278,620.9449q47.6148-2.8908,95.23-2.8908t95.23,2.8908l12.804,136.832q-54.0168,3.2151-108.0337,3.2151t-108.0337-3.2151Z" fill="#c5cfd6" fill-rule="evenodd"/></g><path d="M398.3836,881.5421h288.09V1060.645h-58.172V919.4293H398.3836V1060.645h-58.172V881.5421Z" fill="#f2f2f2" fill-rule="evenodd"/></g><g id="Plant"><g id="Succulents"><path id="Thi-Succs_" data-name="Thi-Succs!" d="M1499.1665,575.3591c24.4682,36.1461,66.062,61.2606,88.0917,98.8453,13.0634,22.2888,18.5088,46.5231,18.8391,71.3434.1794,13.4814-.198,26.9716-.2995,40.453a304.2362,304.2362,0,0,1-2.4686,39.273c-1.8037,13.1322-3.8233,26.1079-4.7141,39.3211-.6934,10.2954-1.01,22.27-6.6235,31.6612-4.4639,7.4683-15.8094,8.5626-18.82-.4952-1.6729-5.0351-1.462-10.6569-1.2776-15.8318.2367-6.6393.8579-13.2688,1.1746-19.9069,1.2733-26.6378-.3775-53.28.4854-79.9288.8429-26.0363,6.2261-52.0441.27-77.9067-4.9186-21.3572-17.4144-39.697-31.7746-57.2789-13.8162-16.9155-28.8535-33.42-38.19-52.6611a63.5992,63.5992,0,0,1-5.7478-17.1943A.9222.9222,0,0,1,1499.1665,575.3591Z" fill="#c1dee2" fill-rule="evenodd"/><path id="Thi-Succs_2" data-name="Thi-Succs!" d="M1492.4979,646.6709c4.8451,2.1751,7.5525,5.3569,10.8273,8.4964,4.0725,3.903,8.86,7.4268,12.9318,11.3327,8.49,8.1431,15.9483,16.7864,23.6872,25.26,14.6925,16.0828,25.8478,33.2239,31.3729,51.83,5.7271,19.2823,7.2713,39.1848,9.6735,58.7546,2.5481,20.7418,5.1138,41.6348,5.4512,62.4564.151,9.3286.9621,19.2314-.8393,28.4943-1.1215,5.7667-5.3074,10.6814-14.7446,10.6347-20.0458-.0989-29.457-13.902-33.3889-25.2227-5.7874-16.6692-6.9422-34.3754-6.0259-51.4225,1.1069-20.5553,6.8454-40.8019,9.3289-61.2781,2.63-21.6764,1.1444-42.97-10.8429-63.38-6.0562-10.314-13.0848-20.3808-19.3961-30.6263-2.6875-4.3622-4.8888-8.8432-8.5187-12.9052-4.0381-4.5184-9.0509-8.62-12.2133-13.4867Q1491.1489,646.14,1492.4979,646.6709Z" fill="#89c5cc" fill-rule="evenodd"/><path id="Thi-Succs_3" data-name="Thi-Succs!" d="M1723.4146,603.4463q.9219-.4453,1.8445-.8915c-1.77,4.6372-4.968,8.4039-7.4124,12.6428-2.1972,3.8108-3.3109,8.1232-4.7908,12.2886-3.4752,9.7832-7.491,19.3458-10.7734,29.2123-6.4975,19.524-5.2686,40.5573-1.0072,62.2184,4.0246,20.4616,10.3895,40.8915,13.4224,61.3487,2.514,16.9656,3.5946,34.46,1.1965,50.6472-1.63,10.9931-6.9716,24.1186-21.5268,23.0091-6.8524-.5222-10.4269-5.65-11.867-11.4377-2.3132-9.2971-2.7975-19.0717-3.6991-28.3163-2.0124-20.6344-2.4132-41.2053-2.8105-61.6273-.3762-19.2682-1.4119-38.9181.659-57.7008,1.9974-18.1242,8.2448-34.4558,17.1772-49.5246,4.7047-7.9389,9.1874-16.0636,14.4733-23.63,2.535-3.6294,5.632-6.8364,8.168-10.4629C1718.5075,608.3053,1720.13,605.3121,1723.4146,603.4463Z" fill="#c1dee2" fill-rule="evenodd"/><path id="Thi-Succs_4" data-name="Thi-Succs!" d="M1498.69,706.4032c2.6508-2.7666,8.4855,6.3575,9.3735,7.505q-.5633-.8562-1.133-1.71c5.2615,5.4391,10.0749,11.1011,13.0676,17.3377,2.9614,6.1738,5.505,12.4725,8.2837,18.69,5.2139,11.6658,11.94,23,16.6637,34.7715,4.6028,11.47,5.7634,22.7462,4.6491,34.6106-1.158,12.331-1.8665,24.8513-.5155,37.1757.6452,5.8862,3.7217,11.369,5.83,17.0358,2.1111,5.6724,3.7739,11.42,6.27,17.0224.5729-.73.6459,1.71.6447,1.8953a7.8681,7.8681,0,0,1-1.0543,3.9,14.5539,14.5539,0,0,1-10.6411,7.253c-9.5748,1.7007-18.4647-3.7139-21.5524-9.4314-4.43-8.2038-6.87-17.27-8.9812-25.8924a76.5788,76.5788,0,0,1-1.8183-23.8766c1.1326-15.8074,5.734-31.4079,6.9787-47.2106,1.3547-17.2042-4.1282-33.369-8.7188-50.1159-2.2112-8.0694-4.3243-16.0625-8.6275-23.75a59.5988,59.5988,0,0,0-6.3954-8.7351C1499.6581,711.2423,1496.9175,708.3248,1498.69,706.4032Z" fill="#c1dee2" fill-rule="evenodd"/><path id="Thi-Succs_5" data-name="Thi-Succs!" d="M1576.3723,679.53c-1.0982,19.71-2.9919,39.2695-7.2186,58.7714-4.3138,19.9017-9.2684,39.735-13.419,59.6542-4.04,19.39-8.2754,39.1012-7.7108,58.7613.4158,14.4815-3.4466,38.9794,22.4239,46.1267,26.2016,7.2381,31.8219-23.6718,33.5424-33.8743,3.297-19.5743,2.23-39.3549.63-59.036-1.6427-20.1993-4.3849-40.2958-7.7835-60.4214-3.7748-22.3547-6.7367-44.81-9.1138-67.2285a246.2926,246.2926,0,0,1-1.1414-33.2507c.3068-10.4663-.3329-21.0409-6.3184-30.9782-.3136.1414-.6252.2828-.9388.4235" fill="#69a1ac" fill-rule="evenodd"/><path id="Thi-Succs_6" data-name="Thi-Succs!" d="M1711.6378,741.9713c-4.7121,4.2676-9.4621,8.4937-13.9121,13.0142-7.9622,8.0879-15.1623,17.0827-17.3283,28.6473-4.5329,24.2022-.8963,50.3419-.0186,75.285.1795,5.0971-.8574,10.04,2.3741,14.8912,2.93,4.3988,8.4078,7.751,13.6293,7.733,11.1782-.04,9.4727-17.0571,9.4911-24.5476.0337-13.1284-2.3342-26.39-2.13-39.5059a173.0207,173.0207,0,0,1,4.505-38.3659,155.2734,155.2734,0,0,1,13.4908-35.68c.8228-1.5534,6.728-13.5568,1.1489-11.4881" fill="#89c5cc" fill-rule="evenodd"/><path id="Thi-Succs_7" data-name="Thi-Succs!" d="M1662.2732,612.8877c-7.3492,0-7.3041,22.7771-7.5252,25.7027-.7984,10.5577-.6109,21.1183-1.1159,31.6781-1.1054,23.0447-2.4633,46.2914-8.0313,69.07-2.9977,12.2624-6.4732,24.47-10.2117,36.64-3.749,12.2045-8.7815,24.3942-11.248,36.7533-2.368,11.8811-1.03,23.9959-.7052,35.9356.3248,12.0117.9084,24.0474,3.44,35.9539.6245,2.9391,1.3569,5.8675,2.1406,8.7888.6528,2.4342.2724,5.453,1.3768,7.7663,1.7708,3.7052,9.3609,4.9177,14.4721,4.3387,13.83-1.57,22.6636-12.3655,27.3881-20.2533,6.0331-10.0719,9.2341-20.9968,12.3932-31.6111a177.2777,177.2777,0,0,0,6.6608-36.4765c2-24.8814-.5668-49.79-3.4336-74.5912-1.5947-13.7934-3.4367-27.526-6.2553-41.2339-2.807-13.6493-6.4083-27.2379-8.7532-40.9274-1.7037-9.9484-3.3823-19.91-4.4856-29.8966-.264-2.3811-.4862-17.6369-6.1065-17.6369" fill="#69a1ac" fill-rule="evenodd"/><path id="Thi-Succs_8" data-name="Thi-Succs!" d="M1653.0726,778.4523c-1.1979-23.9137-16.66-128.9537-20.178-157.8716-.88-7.2381-9.3491-37.3748-10.4478-45.58-2.9789,2.3193-2.7243,38.42-2.6916,46.7152.0347,8.2054-1.6021,16.2747-2.4444,24.436-.8582,8.3275-20.6609,115.8751-23.2307,123.8768a332.38,332.38,0,0,0-11.1732,48.5306c-2.5708,15.8643-6.5678,32.6009-3.1276,48.5483a34.3811,34.3811,0,0,0,4.0794,10.6563,105.8958,105.8958,0,0,1,5.4766,10.827,25.8765,25.8765,0,0,0,15.89,14.068c16.2034,5.1991,24.904-6.57,29.3147-16.8168a182.468,182.468,0,0,0,13.685-50.18c2.3452-19.0133,5.807-38.0655,4.8477-57.21" fill="#89c5cc" fill-rule="evenodd"/></g><g id="Planter"><path id="Vase" d="M1487.0309,848.8214h240.9983c3.06,0,5.54,1.542,5.54,3.4443v149.8265c0,1.9022-2.4805,3.4442-5.54,3.4442H1487.0309c-3.06,0-5.54-1.542-5.54-3.4442V852.2657C1481.4907,850.3634,1483.9712,848.8214,1487.0309,848.8214Z" fill="#fff" fill-rule="evenodd"/><path id="Leg" d="M1459.33,866.0428h16.62c3.06,0,5.54,1.5421,5.54,3.4443v187.7137c0,1.9022-2.48,3.4442-5.54,3.4442h-16.62c-3.06,0-5.54-1.542-5.54-3.4442V869.4871C1453.79,867.5849,1456.27,866.0428,1459.33,866.0428Z" fill="#c5cfd6" fill-rule="evenodd"/><path id="Leg-2" data-name="Leg" d="M1597.8347,866.0428h16.6206c3.06,0,5.54,1.5421,5.54,3.4443v187.7137c0,1.9022-2.48,3.4442-5.54,3.4442h-16.6206c-3.06,0-5.54-1.542-5.54-3.4442V869.4871C1592.2945,867.5849,1594.775,866.0428,1597.8347,866.0428Z" fill="#c5cfd6" fill-rule="evenodd"/><path id="Leg-3" data-name="Leg" d="M1739.11,866.0428h16.62c3.06,0,5.54,1.5421,5.54,3.4443v187.7137c0,1.9022-2.48,3.4442-5.54,3.4442h-16.62c-3.06,0-5.54-1.542-5.54-3.4442V869.4871C1733.5694,867.5849,1736.05,866.0428,1739.11,866.0428Z" fill="#c5cfd6" fill-rule="evenodd"/></g></g></g><g id="Layer_2" data-name="Layer 2"><rect x="-4.7059" y="-4.0247" width="1929.4118" height="1088.0495" fill="#dfffe2" opacity="0.52"/></g></svg>